<?xml version="1.0" encoding="UTF-8"?>
<!-- Generated by Pixelmator Pro 3.3.2 -->
<svg width="32" height="32" viewBox="0 0 32 32" xmlns="http://www.w3.org/2000/svg" xmlns:xlink="http://www.w3.org/1999/xlink">
    <g id="Group">
        <g id="g1">
            <path id="Path" fill="#000000" stroke="none" d="M 25 16 C 25 14.5 23.799999 13.200001 22.299999 13 C 21.200001 10.6 18.799999 9 16 9 C 15.8 9 15.5 9 15.3 9.1 C 14.7 8.4 13.9 8 13 8 C 11.3 8 10 9.299999 10 11 C 10 11.4 10.1 11.700001 10.2 12.1 C 9.4 13.200001 9 14.5 9 16 C 9 17.5 9.4 18.799999 10.2 19.9 C 10.1 20.299999 10 20.6 10 21 C 10 22.700001 11.3 24 13 24 C 13.9 24 14.7 23.6 15.3 22.9 C 15.5 22.9 15.8 23 16 23 C 18.799999 23 21.200001 21.299999 22.299999 19 C 23.799999 18.799999 25 17.5 25 16 Z M 13 10 C 13.6 10 14 10.4 14 11 C 14 11.6 13.6 12 13 12 C 12.4 12 12 11.6 12 11 C 12 10.4 12.4 10 13 10 Z M 13 22 C 12.4 22 12 21.6 12 21 C 12 20.4 12.4 20 13 20 C 13.6 20 14 20.4 14 21 C 14 21.6 13.6 22 13 22 Z M 16 21 C 16 19.299999 14.7 18 13 18 C 12.5 18 12 18.1 11.6 18.4 C 11.2 17.700001 11 16.9 11 16 C 11 15.1 11.2 14.299999 11.6 13.6 C 12 13.9 12.5 14 13 14 C 14.7 14 16 12.700001 16 11 C 17.9 11 19.4 12 20.299999 13.5 C 19.5 14.1 19 15 19 16 C 19 17 19.5 17.9 20.299999 18.5 C 19.4 20 17.9 21 16 21 Z M 22 17 C 21.4 17 21 16.6 21 16 C 21 15.4 21.4 15 22 15 C 22.6 15 23 15.4 23 16 C 23 16.6 22.6 17 22 17 Z"/>
            <path id="path1" fill="#000000" stroke="none" d="M 16 31 C 15.8 31 15.7 31 15.5 30.9 L 3.5 23.9 C 3.2 23.700001 3 23.4 3 23 L 3 9 C 3 8.6 3.2 8.299999 3.5 8.1 L 15.5 1.1 C 15.8 0.9 16.200001 0.9 16.5 1.1 L 28.5 8.1 L 27.5 9.799999 L 16 3.200001 L 5 9.6 L 5 22.5 L 16 28.9 L 27 22.5 L 27 15 L 29 15 L 29 23 C 29 23.4 28.799999 23.700001 28.5 23.9 L 16.5 30.9 C 16.299999 31 16.200001 31 16 31 Z"/>
            <path id="x3CTransparentRectanglex3E589" fill="none" stroke="none" d="M 0 0 L 32 0 L 32 32 L 0 32 Z"/>
        </g>
    </g>
</svg>
